<svg width="1024" height="1024" viewBox="0 0 32 32" fill="none"
  xmlns="http://www.w3.org/2000/svg">
  <rect width="32" height="32" fill="black"/>
  <mask id="path-1-outside-1_1_2" maskUnits="userSpaceOnUse" x="4.69787" y="9.11" width="23" height="13" fill="black">
    <rect fill="white" x="4.69787" y="9.11" width="23" height="13"/>
    <path fill-rule="evenodd" clip-rule="evenodd" d="M10.9829 16.665H9.58287V19.74C9.58287 19.77 9.60787 19.795 9.65787 19.815C9.70787 19.825 9.77287 19.84 9.85287 19.86C9.94287 19.87 10.0379 19.88 10.1379 19.89H10.4829H10.6629V21H5.69787V19.89H5.86287C6.12287 19.89 6.33787 19.855 6.50787 19.785C6.68787 19.715 6.77787 19.57 6.77787 19.35V12C6.77787 11.78 6.68787 11.635 6.50787 11.565C6.33787 11.495 6.12287 11.46 5.86287 11.46H5.69787V10.35H11.4129C12.2729 10.35 12.9979 10.465 13.5879 10.695C14.1879 10.925 14.6429 11.265 14.9529 11.715C15.2629 12.155 15.4179 12.69 15.4179 13.32C15.4179 13.9 15.2829 14.41 15.0129 14.85C14.7529 15.28 14.3679 15.63 13.8579 15.9C13.7456 15.9572 13.6275 16.0101 13.5036 16.0586L15.1929 19.26C15.2829 19.43 15.3779 19.56 15.4779 19.65C15.5779 19.74 15.6829 19.805 15.7929 19.845C15.9129 19.875 16.0479 19.89 16.1979 19.89H16.3179V21H12.9879L10.9829 16.665ZM9.58287 15.51V11.52H10.9479C11.2979 11.52 11.5929 11.595 11.8329 11.745C12.0729 11.885 12.2479 12.1 12.3579 12.39C12.4779 12.67 12.5379 13.01 12.5379 13.41C12.5379 13.84 12.4779 14.215 12.3579 14.535C12.2379 14.845 12.0529 15.085 11.8029 15.255C11.5629 15.425 11.2479 15.51 10.8579 15.51H9.58287ZM25.4951 19.485V17.34C25.4951 17.11 25.5651 16.96 25.7051 16.89C25.8451 16.81 26.0351 16.77 26.2751 16.77H26.4701V15.66H21.6851V16.77H21.9551C22.2351 16.77 22.4701 16.81 22.6601 16.89C22.8501 16.96 22.9451 17.11 22.9451 17.34V19.305C22.8551 19.395 22.7301 19.49 22.5701 19.59C22.4201 19.69 22.2251 19.78 21.9851 19.86C21.7551 19.93 21.4751 19.965 21.1451 19.965C20.7151 19.965 20.3301 19.88 19.9901 19.71C19.6501 19.54 19.3601 19.285 19.1201 18.945C18.8901 18.595 18.7151 18.15 18.5951 17.61C18.4751 17.06 18.4151 16.415 18.4151 15.675C18.4151 14.975 18.4701 14.36 18.5801 13.83C18.7001 13.29 18.8751 12.84 19.1051 12.48C19.3451 12.12 19.6351 11.85 19.9751 11.67C20.3151 11.48 20.7101 11.385 21.1601 11.385C21.6501 11.385 22.0701 11.485 22.4201 11.685C22.7701 11.885 23.0651 12.16 23.3051 12.51C23.5551 12.86 23.7551 13.27 23.9051 13.74H25.3451V10.29H24.0701L23.9255 11.6933C23.8993 11.6499 23.8725 11.6071 23.8451 11.565C23.5551 11.105 23.1651 10.75 22.6751 10.5C22.1851 10.24 21.5751 10.11 20.8451 10.11C20.0851 10.11 19.3801 10.235 18.7301 10.485C18.0801 10.735 17.5101 11.105 17.0201 11.595C16.5301 12.075 16.1501 12.66 15.8801 13.35C15.6201 14.03 15.4901 14.805 15.4901 15.675C15.4901 16.555 15.6151 17.34 15.8651 18.03C16.1251 18.71 16.4951 19.29 16.9751 19.77C17.4651 20.25 18.0451 20.615 18.7151 20.865C19.3851 21.115 20.1351 21.24 20.9651 21.24C21.5051 21.24 22.0151 21.185 22.4951 21.075C22.9751 20.965 23.4101 20.825 23.8001 20.655C24.2001 20.475 24.5451 20.285 24.8351 20.085C25.1251 19.875 25.3451 19.675 25.4951 19.485Z"/>
  </mask>
  <path fill-rule="evenodd" clip-rule="evenodd" d="M10.9829 16.665H9.58287V19.74C9.58287 19.77 9.60787 19.795 9.65787 19.815C9.70787 19.825 9.77287 19.84 9.85287 19.86C9.94287 19.87 10.0379 19.88 10.1379 19.89H10.4829H10.6629V21H5.69787V19.89H5.86287C6.12287 19.89 6.33787 19.855 6.50787 19.785C6.68787 19.715 6.77787 19.57 6.77787 19.35V12C6.77787 11.78 6.68787 11.635 6.50787 11.565C6.33787 11.495 6.12287 11.46 5.86287 11.46H5.69787V10.35H11.4129C12.2729 10.35 12.9979 10.465 13.5879 10.695C14.1879 10.925 14.6429 11.265 14.9529 11.715C15.2629 12.155 15.4179 12.69 15.4179 13.32C15.4179 13.9 15.2829 14.41 15.0129 14.85C14.7529 15.28 14.3679 15.63 13.8579 15.9C13.7456 15.9572 13.6275 16.0101 13.5036 16.0586L15.1929 19.26C15.2829 19.43 15.3779 19.56 15.4779 19.65C15.5779 19.74 15.6829 19.805 15.7929 19.845C15.9129 19.875 16.0479 19.89 16.1979 19.89H16.3179V21H12.9879L10.9829 16.665ZM9.58287 15.51V11.52H10.9479C11.2979 11.52 11.5929 11.595 11.8329 11.745C12.0729 11.885 12.2479 12.1 12.3579 12.39C12.4779 12.67 12.5379 13.01 12.5379 13.41C12.5379 13.84 12.4779 14.215 12.3579 14.535C12.2379 14.845 12.0529 15.085 11.8029 15.255C11.5629 15.425 11.2479 15.51 10.8579 15.51H9.58287ZM25.4951 19.485V17.34C25.4951 17.11 25.5651 16.96 25.7051 16.89C25.8451 16.81 26.0351 16.77 26.2751 16.77H26.4701V15.66H21.6851V16.77H21.9551C22.2351 16.77 22.4701 16.81 22.6601 16.89C22.8501 16.96 22.9451 17.11 22.9451 17.34V19.305C22.8551 19.395 22.7301 19.49 22.5701 19.59C22.4201 19.69 22.2251 19.78 21.9851 19.86C21.7551 19.93 21.4751 19.965 21.1451 19.965C20.7151 19.965 20.3301 19.88 19.9901 19.71C19.6501 19.54 19.3601 19.285 19.1201 18.945C18.8901 18.595 18.7151 18.15 18.5951 17.61C18.4751 17.06 18.4151 16.415 18.4151 15.675C18.4151 14.975 18.4701 14.36 18.5801 13.83C18.7001 13.29 18.8751 12.84 19.1051 12.48C19.3451 12.12 19.6351 11.85 19.9751 11.67C20.3151 11.48 20.7101 11.385 21.1601 11.385C21.6501 11.385 22.0701 11.485 22.4201 11.685C22.7701 11.885 23.0651 12.16 23.3051 12.51C23.5551 12.86 23.7551 13.27 23.9051 13.74H25.3451V10.29H24.0701L23.9255 11.6933C23.8993 11.6499 23.8725 11.6071 23.8451 11.565C23.5551 11.105 23.1651 10.75 22.6751 10.5C22.1851 10.24 21.5751 10.11 20.8451 10.11C20.0851 10.11 19.3801 10.235 18.7301 10.485C18.0801 10.735 17.5101 11.105 17.0201 11.595C16.5301 12.075 16.1501 12.66 15.8801 13.35C15.6201 14.03 15.4901 14.805 15.4901 15.675C15.4901 16.555 15.6151 17.34 15.8651 18.03C16.1251 18.71 16.4951 19.29 16.9751 19.77C17.4651 20.25 18.0451 20.615 18.7151 20.865C19.3851 21.115 20.1351 21.24 20.9651 21.24C21.5051 21.24 22.0151 21.185 22.4951 21.075C22.9751 20.965 23.4101 20.825 23.8001 20.655C24.2001 20.475 24.5451 20.285 24.8351 20.085C25.1251 19.875 25.3451 19.675 25.4951 19.485Z" fill="white"/>
  <path d="M10.9829 16.665L11.2552 16.5391C11.2061 16.4329 11.0999 16.365 10.9829 16.365V16.665ZM9.58287 16.665V16.365C9.41719 16.365 9.28287 16.4993 9.28287 16.665H9.58287ZM9.65787 19.815L9.54646 20.0935C9.56347 20.1003 9.58107 20.1056 9.59904 20.1092L9.65787 19.815ZM9.85287 19.86L9.78011 20.151C9.79315 20.1543 9.80639 20.1567 9.81974 20.1582L9.85287 19.86ZM10.1379 19.89L10.108 20.1885C10.1179 20.1895 10.1279 20.19 10.1379 20.19V19.89ZM10.6629 19.89H10.9629C10.9629 19.7243 10.8286 19.59 10.6629 19.59V19.89ZM10.6629 21V21.3C10.8286 21.3 10.9629 21.1657 10.9629 21H10.6629ZM5.69787 21H5.39787C5.39787 21.1657 5.53219 21.3 5.69787 21.3V21ZM5.69787 19.89V19.59C5.53219 19.59 5.39787 19.7243 5.39787 19.89H5.69787ZM6.50787 19.785L6.39912 19.5053L6.39365 19.5076L6.50787 19.785ZM6.50787 11.565L6.39362 11.8425L6.39914 11.8446L6.50787 11.565ZM5.69787 11.46H5.39787C5.39787 11.6257 5.53219 11.76 5.69787 11.76V11.46ZM5.69787 10.35V10.05C5.53219 10.05 5.39787 10.1843 5.39787 10.35H5.69787ZM13.5879 10.695L13.4789 10.9745L13.4805 10.9751L13.5879 10.695ZM14.9529 11.715L14.7058 11.8852L14.7076 11.8878L14.9529 11.715ZM15.0129 14.85L14.7572 14.6931L14.7562 14.6948L15.0129 14.85ZM13.8579 15.9L13.9941 16.1673L13.9982 16.1651L13.8579 15.9ZM13.5036 16.0586L13.3943 15.7793C13.3147 15.8104 13.2522 15.874 13.2224 15.954C13.1927 16.0341 13.1984 16.1231 13.2383 16.1986L13.5036 16.0586ZM15.1929 19.26L14.9275 19.4L14.9277 19.4004L15.1929 19.26ZM15.7929 19.845L15.6903 20.1269C15.7001 20.1305 15.71 20.1335 15.7201 20.136L15.7929 19.845ZM16.3179 19.89H16.6179C16.6179 19.7243 16.4836 19.59 16.3179 19.59V19.89ZM16.3179 21V21.3C16.4836 21.3 16.6179 21.1657 16.6179 21H16.3179ZM12.9879 21L12.7156 21.1259C12.7647 21.2321 12.8709 21.3 12.9879 21.3V21ZM9.58287 11.52V11.22C9.41719 11.22 9.28287 11.3543 9.28287 11.52H9.58287ZM9.58287 15.51H9.28287C9.28287 15.6757 9.41719 15.81 9.58287 15.81V15.51ZM11.8329 11.745L11.6738 11.9995L11.6817 12.0041L11.8329 11.745ZM12.3579 12.39L12.0771 12.4965L12.0821 12.5082L12.3579 12.39ZM12.3579 14.535L12.6377 14.6433L12.6388 14.6403L12.3579 14.535ZM11.8029 15.255L11.6341 15.0069L11.6295 15.0102L11.8029 15.255ZM25.4951 19.485L25.7305 19.6709C25.7723 19.6179 25.7951 19.5525 25.7951 19.485H25.4951ZM25.7051 16.89L25.8392 17.1583C25.8442 17.1558 25.8491 17.1532 25.8539 17.1505L25.7051 16.89ZM26.4701 16.77V17.07C26.6357 17.07 26.7701 16.9357 26.7701 16.77H26.4701ZM26.4701 15.66H26.7701C26.7701 15.4943 26.6357 15.36 26.4701 15.36V15.66ZM21.6851 15.66V15.36C21.5194 15.36 21.3851 15.4943 21.3851 15.66H21.6851ZM21.6851 16.77H21.3851C21.3851 16.9357 21.5194 17.07 21.6851 17.07V16.77ZM22.6601 16.89L22.5435 17.1668L22.5563 17.1715L22.6601 16.89ZM22.9451 19.305L23.1572 19.5171C23.2135 19.4609 23.2451 19.3846 23.2451 19.305H22.9451ZM22.5701 19.59L22.411 19.3355L22.4036 19.3404L22.5701 19.59ZM21.9851 19.86L22.0724 20.1471L22.0799 20.1446L21.9851 19.86ZM19.9901 19.71L20.1242 19.4417L20.1242 19.4417L19.9901 19.71ZM19.1201 18.945L18.8692 19.1098L18.875 19.118L19.1201 18.945ZM18.5951 17.61L18.302 17.674L18.3022 17.6751L18.5951 17.61ZM18.5801 13.83L18.2872 13.7649L18.2863 13.769L18.5801 13.83ZM19.1051 12.48L18.8554 12.3136L18.8523 12.3185L19.1051 12.48ZM19.9751 11.67L20.1155 11.9352L20.1214 11.9319L19.9751 11.67ZM22.4201 11.685L22.5689 11.4245L22.5689 11.4245L22.4201 11.685ZM23.3051 12.51L23.0576 12.6797L23.0609 12.6844L23.3051 12.51ZM23.9051 13.74L23.6193 13.8312C23.659 13.9556 23.7745 14.04 23.9051 14.04V13.74ZM25.3451 13.74V14.04C25.5107 14.04 25.6451 13.9057 25.6451 13.74H25.3451ZM25.3451 10.29H25.6451C25.6451 10.1243 25.5107 9.99 25.3451 9.99V10.29ZM24.0701 10.29V9.99C23.9163 9.99 23.7874 10.1063 23.7716 10.2593L24.0701 10.29ZM23.9255 11.6933L23.6685 11.8481C23.7351 11.9586 23.8649 12.0142 23.9909 11.9861C24.1168 11.9579 24.2107 11.8524 24.2239 11.724L23.9255 11.6933ZM23.8451 11.565L23.5913 11.725L23.5938 11.7289L23.8451 11.565ZM22.6751 10.5L22.5344 10.765L22.5387 10.7672L22.6751 10.5ZM18.7301 10.485L18.8378 10.765L18.8378 10.765L18.7301 10.485ZM17.0201 11.595L17.23 11.8093L17.2322 11.8071L17.0201 11.595ZM15.8801 13.35L15.6007 13.2407L15.5998 13.2429L15.8801 13.35ZM15.8651 18.03L15.583 18.1322L15.5848 18.1371L15.8651 18.03ZM16.9751 19.77L16.7629 19.9821L16.7651 19.9843L16.9751 19.77ZM22.4951 21.075L22.428 20.7826L22.428 20.7826L22.4951 21.075ZM23.8001 20.655L23.9199 20.93L23.9232 20.9286L23.8001 20.655ZM24.8351 20.085L25.0054 20.332L25.011 20.328L24.8351 20.085ZM10.9829 16.365H9.58287V16.965H10.9829V16.365ZM9.28287 16.665V19.74H9.88287V16.665H9.28287ZM9.28287 19.74C9.28287 19.9711 9.47932 20.0667 9.54646 20.0935L9.76929 19.5365C9.76422 19.5344 9.78652 19.5419 9.81375 19.5691C9.8467 19.6021 9.88287 19.6613 9.88287 19.74H9.28287ZM9.59904 20.1092C9.64243 20.1179 9.70229 20.1316 9.78011 20.151L9.92563 19.569C9.84345 19.5484 9.77332 19.5321 9.71671 19.5208L9.59904 20.1092ZM9.81974 20.1582C9.91094 20.1683 10.007 20.1784 10.108 20.1885L10.1677 19.5915C10.0687 19.5816 9.9748 19.5717 9.886 19.5618L9.81974 20.1582ZM10.1379 20.19H10.4829V19.59H10.1379V20.19ZM10.4829 20.19H10.6629V19.59H10.4829V20.19ZM10.3629 19.89V21H10.9629V19.89H10.3629ZM10.6629 20.7H5.69787V21.3H10.6629V20.7ZM5.99787 21V19.89H5.39787V21H5.99787ZM5.69787 20.19H5.86287V19.59H5.69787V20.19ZM5.86287 20.19C6.14704 20.19 6.40417 20.1521 6.6221 20.0624L6.39365 19.5076C6.27157 19.5579 6.0987 19.59 5.86287 19.59V20.19ZM6.6166 20.0646C6.75884 20.0093 6.88154 19.9168 6.96526 19.782C7.04714 19.65 7.07787 19.5 7.07787 19.35H6.47787C6.47787 19.42 6.4636 19.4525 6.45548 19.4655C6.4492 19.4757 6.43691 19.4907 6.39914 19.5054L6.6166 20.0646ZM7.07787 19.35V12H6.47787V19.35H7.07787ZM7.07787 12C7.07787 11.85 7.04714 11.7 6.96526 11.568C6.88154 11.4332 6.75884 11.3407 6.6166 11.2854L6.39914 11.8446C6.43691 11.8593 6.4492 11.8743 6.45548 11.8845C6.4636 11.8975 6.47787 11.93 6.47787 12H7.07787ZM6.6221 11.2876C6.40417 11.1979 6.14704 11.16 5.86287 11.16V11.76C6.0987 11.76 6.27157 11.7921 6.39365 11.8424L6.6221 11.2876ZM5.86287 11.16H5.69787V11.76H5.86287V11.16ZM5.99787 11.46V10.35H5.39787V11.46H5.99787ZM5.69787 10.65H11.4129V10.05H5.69787V10.65ZM11.4129 10.65C12.2481 10.65 12.9336 10.762 13.4789 10.9745L13.6968 10.4155C13.0621 10.168 12.2977 10.05 11.4129 10.05V10.65ZM13.4805 10.9751C14.0341 11.1873 14.4359 11.4934 14.7058 11.8852L15.1999 11.5448C14.8498 11.0366 14.3416 10.6627 13.6953 10.4149L13.4805 10.9751ZM14.7076 11.8878C14.9762 12.269 15.1179 12.741 15.1179 13.32H15.7179C15.7179 12.639 15.5495 12.041 15.1981 11.5422L14.7076 11.8878ZM15.1179 13.32C15.1179 13.8516 14.9947 14.306 14.7572 14.6931L15.2686 15.0069C15.571 14.514 15.7179 13.9484 15.7179 13.32H15.1179ZM14.7562 14.6948C14.5282 15.0717 14.1867 15.3864 13.7175 15.6349L13.9982 16.1651C14.549 15.8736 14.9775 15.4883 15.2696 15.0052L14.7562 14.6948ZM13.7216 15.6327C13.6186 15.6853 13.5095 15.7341 13.3943 15.7793L13.613 16.338C13.7456 16.2861 13.8726 16.2292 13.9941 16.1673L13.7216 15.6327ZM13.2383 16.1986L14.9275 19.4L15.4582 19.12L13.769 15.9186L13.2383 16.1986ZM14.9277 19.4004C15.0277 19.5892 15.1424 19.7517 15.2772 19.873L15.6786 19.427C15.6134 19.3683 15.538 19.2708 15.458 19.1196L14.9277 19.4004ZM15.2772 19.873C15.4016 19.9849 15.5391 20.072 15.6903 20.1269L15.8954 19.5631C15.8266 19.538 15.7542 19.4951 15.6786 19.427L15.2772 19.873ZM15.7201 20.136C15.8683 20.1731 16.0283 20.19 16.1979 20.19V19.59C16.0674 19.59 15.9574 19.5769 15.8656 19.554L15.7201 20.136ZM16.1979 20.19H16.3179V19.59H16.1979V20.19ZM16.0179 19.89V21H16.6179V19.89H16.0179ZM16.3179 20.7H12.9879V21.3H16.3179V20.7ZM13.2602 20.8741L11.2552 16.5391L10.7106 16.7909L12.7156 21.1259L13.2602 20.8741ZM9.28287 11.52V15.51H9.88287V11.52H9.28287ZM10.9479 11.22H9.58287V11.82H10.9479V11.22ZM11.9919 11.4906C11.6941 11.3045 11.3408 11.22 10.9479 11.22V11.82C11.2549 11.82 11.4917 11.8855 11.6739 11.9994L11.9919 11.4906ZM12.6384 12.2836C12.507 11.9373 12.2903 11.6645 11.984 11.4859L11.6817 12.0041C11.8555 12.1055 11.9887 12.2627 12.0774 12.4964L12.6384 12.2836ZM12.8379 13.41C12.8379 12.9815 12.7738 12.5989 12.6336 12.2718L12.0821 12.5082C12.182 12.7411 12.2379 13.0385 12.2379 13.41H12.8379ZM12.6388 14.6403C12.7742 14.2792 12.8379 13.8671 12.8379 13.41H12.2379C12.2379 13.8129 12.1816 14.1508 12.077 14.4297L12.6388 14.6403ZM11.9716 15.5031C12.2769 15.2954 12.4979 15.0042 12.6376 14.6433L12.0781 14.4267C11.9778 14.6858 11.8288 14.8746 11.6342 15.0069L11.9716 15.5031ZM10.8579 15.81C11.29 15.81 11.6714 15.7158 11.9763 15.4998L11.6295 15.0102C11.4544 15.1342 11.2058 15.21 10.8579 15.21V15.81ZM9.58287 15.81H10.8579V15.21H9.58287V15.81ZM25.1951 17.34V19.485H25.7951V17.34H25.1951ZM25.5709 16.6217C25.2848 16.7647 25.1951 17.0564 25.1951 17.34H25.7951C25.7951 17.2528 25.8087 17.2048 25.8194 17.1819C25.8276 17.1644 25.8334 17.1612 25.8392 17.1583L25.5709 16.6217ZM26.2751 16.47C26.0065 16.47 25.7584 16.514 25.5562 16.6295L25.8539 17.1505C25.9317 17.106 26.0636 17.07 26.2751 17.07V16.47ZM26.4701 16.47H26.2751V17.07H26.4701V16.47ZM26.1701 15.66V16.77H26.7701V15.66H26.1701ZM21.6851 15.96H26.4701V15.36H21.6851V15.96ZM21.9851 16.77V15.66H21.3851V16.77H21.9851ZM21.9551 16.47H21.6851V17.07H21.9551V16.47ZM22.7765 16.6135C22.539 16.5135 22.2616 16.47 21.9551 16.47V17.07C22.2085 17.07 22.4011 17.1065 22.5436 17.1665L22.7765 16.6135ZM23.2451 17.34C23.2451 17.1847 23.2129 17.0298 23.1273 16.8945C23.0396 16.7561 22.9115 16.6629 22.7638 16.6085L22.5563 17.1715C22.5986 17.1871 22.613 17.2039 22.6204 17.2155C22.6297 17.2302 22.6451 17.2653 22.6451 17.34H23.2451ZM23.2451 19.305V17.34H22.6451V19.305H23.2451ZM22.7291 19.8444C22.9 19.7375 23.0454 19.6289 23.1572 19.5171L22.7329 19.0929C22.6647 19.1611 22.5601 19.2425 22.4111 19.3356L22.7291 19.8444ZM22.0799 20.1446C22.3359 20.0593 22.5574 19.959 22.7365 19.8396L22.4036 19.3404C22.2827 19.421 22.1142 19.5007 21.8902 19.5754L22.0799 20.1446ZM21.1451 20.265C21.4945 20.265 21.8058 20.2282 22.0724 20.147L21.8977 19.573C21.7044 19.6318 21.4557 19.665 21.1451 19.665V20.265ZM19.8559 19.9783C20.2427 20.1717 20.6746 20.265 21.1451 20.265V19.665C20.7555 19.665 20.4174 19.5883 20.1242 19.4417L19.8559 19.9783ZM18.875 19.118C19.1407 19.4945 19.4675 19.7841 19.8559 19.9783L20.1242 19.4417C19.8326 19.2959 19.5794 19.0755 19.3651 18.772L18.875 19.118ZM18.3022 17.6751C18.4277 18.2398 18.6141 18.7213 18.8693 19.1098L19.3708 18.7802C19.166 18.4687 19.0024 18.0602 18.8879 17.5449L18.3022 17.6751ZM18.1151 15.675C18.1151 16.4302 18.1762 17.0976 18.302 17.6739L18.8882 17.546C18.7739 17.0224 18.7151 16.3998 18.7151 15.675H18.1151ZM18.2863 13.769C18.1712 14.3239 18.1151 14.9601 18.1151 15.675H18.7151C18.7151 14.9899 18.769 14.3961 18.8738 13.891L18.2863 13.769ZM18.8523 12.3185C18.5987 12.7153 18.4127 13.2003 18.2872 13.7649L18.8729 13.8951C18.9874 13.3797 19.1514 12.9647 19.3579 12.6415L18.8523 12.3185ZM19.8347 11.4049C19.4454 11.611 19.1196 11.9174 18.8554 12.3136L19.3547 12.6464C19.5705 12.3226 19.8247 12.089 20.1154 11.9351L19.8347 11.4049ZM21.1601 11.085C20.6669 11.085 20.22 11.1895 19.8287 11.4081L20.1214 11.9319C20.4101 11.7705 20.7533 11.685 21.1601 11.685V11.085ZM22.5689 11.4245C22.1647 11.1936 21.6911 11.085 21.1601 11.085V11.685C21.6091 11.685 21.9754 11.7764 22.2712 11.9455L22.5689 11.4245ZM23.5525 12.3403C23.2883 11.955 22.9603 11.6482 22.5689 11.4245L22.2712 11.9455C22.5799 12.1218 22.8418 12.365 23.0576 12.6797L23.5525 12.3403ZM24.1909 13.6488C24.0327 13.1534 23.8198 12.7144 23.5492 12.3356L23.0609 12.6844C23.2904 13.0056 23.4774 13.3866 23.6193 13.8312L24.1909 13.6488ZM25.3451 13.44H23.9051V14.04H25.3451V13.44ZM25.0451 10.29V13.74H25.6451V10.29H25.0451ZM24.0701 10.59H25.3451V9.99H24.0701V10.59ZM24.2239 11.724L24.3685 10.3207L23.7716 10.2593L23.6271 11.6625L24.2239 11.724ZM23.5938 11.7289C23.6193 11.768 23.6442 11.8077 23.6685 11.8481L24.1825 11.5385C24.1545 11.4921 24.1258 11.4463 24.0963 11.4011L23.5938 11.7289ZM22.5387 10.7672C22.9812 10.993 23.3304 11.3112 23.5913 11.725L24.0988 11.405C23.7797 10.8988 23.3489 10.507 22.8114 10.2328L22.5387 10.7672ZM20.8451 10.41C21.541 10.41 22.0993 10.5341 22.5344 10.765L22.8157 10.235C22.2709 9.94591 21.6091 9.81 20.8451 9.81V10.41ZM18.8378 10.765C19.4504 10.5294 20.1185 10.41 20.8451 10.41V9.81C20.0516 9.81 19.3097 9.94062 18.6224 10.205L18.8378 10.765ZM17.2322 11.8071C17.6924 11.347 18.2267 11 18.8378 10.765L18.6224 10.205C17.9334 10.47 17.3278 10.863 16.8079 11.3829L17.2322 11.8071ZM16.1594 13.4593C16.4152 12.8056 16.7727 12.2573 17.23 11.8093L16.8101 11.3807C16.2874 11.8927 15.8849 12.5144 15.6007 13.2407L16.1594 13.4593ZM15.7901 15.675C15.7901 14.8347 15.9156 14.097 16.1603 13.4571L15.5998 13.2429C15.3245 13.963 15.1901 14.7753 15.1901 15.675H15.7901ZM16.1471 17.9278C15.9111 17.2764 15.7901 16.5269 15.7901 15.675H15.1901C15.1901 16.5831 15.319 17.4036 15.583 18.1322L16.1471 17.9278ZM17.1872 19.5579C16.7391 19.1098 16.3913 18.5664 16.1453 17.9229L15.5848 18.1371C15.8588 18.8536 16.251 19.4702 16.7629 19.9821L17.1872 19.5579ZM18.8199 20.5839C18.1875 20.348 17.6437 20.0051 17.185 19.5557L16.7651 19.9843C17.2864 20.4949 17.9026 20.882 18.6102 21.1461L18.8199 20.5839ZM20.9651 20.94C20.1652 20.94 19.4515 20.8196 18.8199 20.5839L18.6102 21.1461C19.3187 21.4104 20.1049 21.54 20.9651 21.54V20.94ZM22.428 20.7826C21.972 20.8871 21.4847 20.94 20.9651 20.94V21.54C21.5255 21.54 22.0581 21.4829 22.5621 21.3674L22.428 20.7826ZM23.6802 20.38C23.3096 20.5415 22.8927 20.6761 22.428 20.7826L22.5621 21.3674C23.0574 21.2539 23.5105 21.1085 23.9199 20.93L23.6802 20.38ZM24.6647 19.838C24.3927 20.0256 24.0643 20.2071 23.6769 20.3814L23.9232 20.9286C24.3359 20.7429 24.6974 20.5444 25.0054 20.332L24.6647 19.838ZM25.2596 19.2991C25.1328 19.4598 24.9364 19.6413 24.6591 19.842L25.011 20.328C25.3138 20.1087 25.5573 19.8902 25.7305 19.6709L25.2596 19.2991Z" fill="url(#paint0_linear_1_2)" mask="url(#path-1-outside-1_1_2)"/>
  <defs>
    <linearGradient id="paint0_linear_1_2" x1="5.69787" y1="15.675" x2="26.4701" y2="15.675" gradientUnits="userSpaceOnUse">
      <stop offset="0.25" stop-color="#00FF00"/>
      <stop offset="0.5"/>
      <stop offset="0.75" stop-color="#FF0000"/>
    </linearGradient>
  </defs>
</svg>
